<mxfile host="Electron" agent="Mozilla/5.0 (Windows NT 10.0; Win64; x64) AppleWebKit/537.36 (KHTML, like Gecko) draw.io/25.0.2 Chrome/128.0.6613.186 Electron/32.2.5 Safari/537.36" version="25.0.2">
  <diagram name="Page-1" id="ZDmOUN2lEfG_goN9nlL3">
    <mxGraphModel dx="1434" dy="844" grid="1" gridSize="10" guides="1" tooltips="1" connect="1" arrows="1" fold="1" page="1" pageScale="1" pageWidth="827" pageHeight="1169" math="0" shadow="0">
      <root>
        <mxCell id="0" />
        <mxCell id="1" parent="0" />
        <mxCell id="cbIkx4IDr4LtmBqTnANv-3" value="" style="edgeStyle=orthogonalEdgeStyle;rounded=0;orthogonalLoop=1;jettySize=auto;html=1;" parent="1" source="cbIkx4IDr4LtmBqTnANv-1" target="cbIkx4IDr4LtmBqTnANv-2" edge="1">
          <mxGeometry relative="1" as="geometry" />
        </mxCell>
        <mxCell id="cbIkx4IDr4LtmBqTnANv-4" value="" style="edgeStyle=orthogonalEdgeStyle;rounded=0;orthogonalLoop=1;jettySize=auto;html=1;" parent="1" source="cbIkx4IDr4LtmBqTnANv-1" target="cbIkx4IDr4LtmBqTnANv-2" edge="1">
          <mxGeometry relative="1" as="geometry" />
        </mxCell>
        <mxCell id="cbIkx4IDr4LtmBqTnANv-5" value="" style="edgeStyle=orthogonalEdgeStyle;rounded=0;orthogonalLoop=1;jettySize=auto;html=1;" parent="1" source="cbIkx4IDr4LtmBqTnANv-1" target="cbIkx4IDr4LtmBqTnANv-2" edge="1">
          <mxGeometry relative="1" as="geometry" />
        </mxCell>
        <mxCell id="cbIkx4IDr4LtmBqTnANv-6" style="edgeStyle=orthogonalEdgeStyle;rounded=0;orthogonalLoop=1;jettySize=auto;html=1;" parent="1" source="cbIkx4IDr4LtmBqTnANv-1" target="cbIkx4IDr4LtmBqTnANv-8" edge="1">
          <mxGeometry relative="1" as="geometry">
            <mxPoint x="230" y="150" as="targetPoint" />
            <Array as="points">
              <mxPoint x="160" y="50" />
              <mxPoint x="160" y="130" />
            </Array>
          </mxGeometry>
        </mxCell>
        <mxCell id="cbIkx4IDr4LtmBqTnANv-9" style="edgeStyle=orthogonalEdgeStyle;rounded=0;orthogonalLoop=1;jettySize=auto;html=1;" parent="1" source="cbIkx4IDr4LtmBqTnANv-1" target="cbIkx4IDr4LtmBqTnANv-10" edge="1">
          <mxGeometry relative="1" as="geometry">
            <mxPoint x="220" y="240" as="targetPoint" />
            <Array as="points">
              <mxPoint x="160" y="50" />
              <mxPoint x="160" y="210" />
            </Array>
          </mxGeometry>
        </mxCell>
        <mxCell id="cbIkx4IDr4LtmBqTnANv-17" style="edgeStyle=orthogonalEdgeStyle;rounded=0;orthogonalLoop=1;jettySize=auto;html=1;entryX=0;entryY=0.5;entryDx=0;entryDy=0;" parent="1" source="cbIkx4IDr4LtmBqTnANv-1" target="cbIkx4IDr4LtmBqTnANv-11" edge="1">
          <mxGeometry relative="1" as="geometry" />
        </mxCell>
        <mxCell id="cbIkx4IDr4LtmBqTnANv-18" style="edgeStyle=orthogonalEdgeStyle;rounded=0;orthogonalLoop=1;jettySize=auto;html=1;entryX=0;entryY=0.5;entryDx=0;entryDy=0;" parent="1" source="cbIkx4IDr4LtmBqTnANv-1" target="cbIkx4IDr4LtmBqTnANv-12" edge="1">
          <mxGeometry relative="1" as="geometry" />
        </mxCell>
        <mxCell id="cbIkx4IDr4LtmBqTnANv-19" style="edgeStyle=orthogonalEdgeStyle;rounded=0;orthogonalLoop=1;jettySize=auto;html=1;entryX=0;entryY=0.5;entryDx=0;entryDy=0;" parent="1" source="cbIkx4IDr4LtmBqTnANv-1" target="cbIkx4IDr4LtmBqTnANv-13" edge="1">
          <mxGeometry relative="1" as="geometry" />
        </mxCell>
        <mxCell id="cbIkx4IDr4LtmBqTnANv-20" style="edgeStyle=orthogonalEdgeStyle;rounded=0;orthogonalLoop=1;jettySize=auto;html=1;entryX=0;entryY=0.5;entryDx=0;entryDy=0;" parent="1" source="cbIkx4IDr4LtmBqTnANv-1" target="cbIkx4IDr4LtmBqTnANv-14" edge="1">
          <mxGeometry relative="1" as="geometry" />
        </mxCell>
        <mxCell id="cbIkx4IDr4LtmBqTnANv-21" style="edgeStyle=orthogonalEdgeStyle;rounded=0;orthogonalLoop=1;jettySize=auto;html=1;entryX=0;entryY=0.5;entryDx=0;entryDy=0;" parent="1" source="cbIkx4IDr4LtmBqTnANv-1" target="cbIkx4IDr4LtmBqTnANv-15" edge="1">
          <mxGeometry relative="1" as="geometry" />
        </mxCell>
        <mxCell id="cbIkx4IDr4LtmBqTnANv-22" style="edgeStyle=orthogonalEdgeStyle;rounded=0;orthogonalLoop=1;jettySize=auto;html=1;entryX=0;entryY=0.5;entryDx=0;entryDy=0;" parent="1" source="cbIkx4IDr4LtmBqTnANv-1" target="cbIkx4IDr4LtmBqTnANv-16" edge="1">
          <mxGeometry relative="1" as="geometry" />
        </mxCell>
        <mxCell id="2jXZ-nwNpPQpPFHOSixv-4" style="edgeStyle=orthogonalEdgeStyle;rounded=0;orthogonalLoop=1;jettySize=auto;html=1;entryX=0;entryY=0.5;entryDx=0;entryDy=0;" edge="1" parent="1" source="cbIkx4IDr4LtmBqTnANv-1" target="2jXZ-nwNpPQpPFHOSixv-3">
          <mxGeometry relative="1" as="geometry" />
        </mxCell>
        <mxCell id="cbIkx4IDr4LtmBqTnANv-1" value="main" style="rounded=0;whiteSpace=wrap;html=1;" parent="1" vertex="1">
          <mxGeometry x="20" y="20" width="120" height="60" as="geometry" />
        </mxCell>
        <mxCell id="cbIkx4IDr4LtmBqTnANv-2" value="entStore::constructor()" style="rounded=1;whiteSpace=wrap;html=1;glass=1;" parent="1" vertex="1">
          <mxGeometry x="180" y="20" width="140" height="60" as="geometry" />
        </mxCell>
        <mxCell id="cbIkx4IDr4LtmBqTnANv-8" value="textureObject::l&lt;span style=&quot;background-color: initial;&quot;&gt;oadTextures()&lt;/span&gt;" style="rounded=1;whiteSpace=wrap;html=1;glass=1;" parent="1" vertex="1">
          <mxGeometry x="180" y="100" width="180" height="60" as="geometry" />
        </mxCell>
        <mxCell id="cbIkx4IDr4LtmBqTnANv-10" value="ship::init()" style="rounded=1;whiteSpace=wrap;html=1;glass=1;" parent="1" vertex="1">
          <mxGeometry x="180" y="180" width="120" height="60" as="geometry" />
        </mxCell>
        <mxCell id="cbIkx4IDr4LtmBqTnANv-11" value="bullet::init()" style="rounded=1;whiteSpace=wrap;html=1;glass=1;" parent="1" vertex="1">
          <mxGeometry x="180" y="260" width="120" height="60" as="geometry" />
        </mxCell>
        <mxCell id="cbIkx4IDr4LtmBqTnANv-12" value="asteroid::init()" style="rounded=1;whiteSpace=wrap;html=1;glass=1;" parent="1" vertex="1">
          <mxGeometry x="180" y="340" width="120" height="60" as="geometry" />
        </mxCell>
        <mxCell id="cbIkx4IDr4LtmBqTnANv-13" value="uiElement::init()" style="rounded=1;whiteSpace=wrap;html=1;glass=1;" parent="1" vertex="1">
          <mxGeometry x="180" y="420" width="120" height="60" as="geometry" />
        </mxCell>
        <mxCell id="cbIkx4IDr4LtmBqTnANv-14" value="ship::doPlrActions()" style="rounded=1;whiteSpace=wrap;html=1;glass=1;" parent="1" vertex="1">
          <mxGeometry x="180" y="500" width="120" height="60" as="geometry" />
        </mxCell>
        <mxCell id="cbIkx4IDr4LtmBqTnANv-15" value="entStore::updatePostions()" style="rounded=1;whiteSpace=wrap;html=1;glass=1;" parent="1" vertex="1">
          <mxGeometry x="180" y="580" width="160" height="60" as="geometry" />
        </mxCell>
        <mxCell id="cbIkx4IDr4LtmBqTnANv-16" value="entStore::doCollisions()" style="rounded=1;whiteSpace=wrap;html=1;glass=1;" parent="1" vertex="1">
          <mxGeometry x="180" y="660" width="140" height="60" as="geometry" />
        </mxCell>
        <mxCell id="2jXZ-nwNpPQpPFHOSixv-3" value="entStore::drawEnts()" style="rounded=1;whiteSpace=wrap;html=1;glass=1;" vertex="1" parent="1">
          <mxGeometry x="180" y="740" width="130" height="60" as="geometry" />
        </mxCell>
      </root>
    </mxGraphModel>
  </diagram>
</mxfile>
